<svg width="333" height="341" viewBox="0 0 333 341" fill="none" xmlns="http://www.w3.org/2000/svg">
    <path d="M76.2942 216.96C60.3999 209.413 46.6437 198.013 36.276 183.797C25.9083 169.58 19.2578 152.998 16.9289 135.558C14.6001 118.118 16.6668 100.372 22.9411 83.933C29.2154 67.4945 39.4985 52.8846 52.8557 41.4313C66.2129 29.978 82.2206 22.0444 99.4239 18.3516C116.627 14.6587 134.481 15.3238 151.362 20.2863C168.243 25.2488 183.616 34.3514 196.084 46.7668C208.552 59.1821 217.719 74.5165 222.753 91.3763H249.753C267.121 91.346 283.84 97.9749 296.469 109.899C309.097 121.822 316.675 138.133 317.641 155.475C318.607 172.816 312.889 189.868 301.663 203.121C290.437 216.374 274.558 224.82 257.294 226.719" stroke="#9333EA" stroke-width="30.1667" stroke-linecap="round" stroke-linejoin="round"/>
    <path d="M103.053 269.795C101.723 269.801 100.419 269.329 99.2923 268.434C98.1657 267.539 97.2628 266.257 96.6886 264.738C96.1144 263.22 95.8925 261.526 96.0486 259.854C96.2047 258.181 96.7324 256.6 97.5704 255.292L167.162 164.536C167.684 163.773 168.395 163.258 169.179 163.074C169.963 162.891 170.773 163.05 171.476 163.526C172.179 164.002 172.733 164.766 173.048 165.693C173.362 166.621 173.419 167.656 173.207 168.629L159.711 222.193C159.313 223.541 159.179 224.991 159.321 226.419C159.463 227.847 159.877 229.21 160.527 230.391C161.176 231.572 162.043 232.536 163.052 233.201C164.06 233.865 165.181 234.209 166.318 234.205H215.524C216.855 234.199 218.159 234.671 219.285 235.566C220.412 236.461 221.315 237.743 221.889 239.262C222.463 240.78 222.685 242.474 222.529 244.146C222.373 245.819 221.845 247.4 221.007 248.708L151.416 339.464C150.894 340.227 150.183 340.742 149.399 340.926C148.615 341.109 147.805 340.95 147.102 340.474C146.399 339.998 145.844 339.234 145.53 338.307C145.215 337.379 145.159 336.344 145.371 335.371L158.867 281.807C159.265 280.459 159.399 279.009 159.257 277.581C159.114 276.153 158.701 274.79 158.051 273.609C157.401 272.428 156.535 271.464 155.526 270.799C154.517 270.135 153.396 269.791 152.259 269.795H103.053Z" fill="#9333EA"/>
    </svg>
    