<svg width="26" height="36" viewBox="0 0 26 36" fill="none" xmlns="http://www.w3.org/2000/svg">
    <path d="M2.37381 21.3177C2.11108 21.3188 1.8535 21.226 1.63097 21.05C1.40845 20.874 1.23012 20.622 1.11672 20.3234C1.00331 20.0247 0.959475 19.6916 0.990306 19.3629C1.02114 19.0341 1.12537 18.723 1.29089 18.4659L15.0357 0.620583C15.1388 0.470614 15.2793 0.369272 15.4341 0.33319C15.5889 0.297108 15.7489 0.32843 15.8878 0.422016C16.0266 0.515602 16.1361 0.66589 16.1982 0.848212C16.2603 1.03053 16.2714 1.23406 16.2297 1.42537L13.564 11.9576C13.4854 12.2227 13.459 12.5079 13.4871 12.7887C13.5152 13.0695 13.5969 13.3375 13.7252 13.5697C13.8535 13.802 14.0246 13.9915 14.2239 14.1221C14.4231 14.2527 14.6445 14.3204 14.8691 14.3195H24.5876C24.8503 14.3184 25.1079 14.4112 25.3305 14.5872C25.553 14.7632 25.7313 15.0152 25.8447 15.3139C25.9581 15.6125 26.0019 15.9456 25.9711 16.2744C25.9403 16.6031 25.8361 16.9142 25.6705 17.1713L11.9257 35.0166C11.8226 35.1666 11.6821 35.2679 11.5273 35.304C11.3725 35.3401 11.2125 35.3088 11.0737 35.2152C10.9348 35.1216 10.8254 34.9713 10.7632 34.789C10.7011 34.6067 10.69 34.4032 10.7318 34.2118L13.3974 23.6796C13.476 23.4145 13.5024 23.1293 13.4743 22.8485C13.4463 22.5678 13.3646 22.2997 13.2362 22.0675C13.1079 21.8353 12.9368 21.6457 12.7376 21.5151C12.5383 21.3845 12.3169 21.3168 12.0923 21.3177H2.37381Z" fill="#9333EA"/>
    </svg>
    